<?xml version="1.0" encoding="utf-8"?>
<!-- Generator: Adobe Illustrator 23.0.0, SVG Export Plug-In . SVG Version: 6.00 Build 0)  -->
<!DOCTYPE svg PUBLIC "-//W3C//DTD SVG 1.1//EN" "http://www.w3.org/Graphics/SVG/1.1/DTD/svg11.dtd" [
	<!ENTITY ns_extend "http://ns.adobe.com/Extensibility/1.0/">
	<!ENTITY ns_ai "http://ns.adobe.com/AdobeIllustrator/10.0/">
	<!ENTITY ns_graphs "http://ns.adobe.com/Graphs/1.0/">
	<!ENTITY ns_vars "http://ns.adobe.com/Variables/1.0/">
	<!ENTITY ns_imrep "http://ns.adobe.com/ImageReplacement/1.0/">
	<!ENTITY ns_sfw "http://ns.adobe.com/SaveForWeb/1.0/">
	<!ENTITY ns_custom "http://ns.adobe.com/GenericCustomNamespace/1.0/">
	<!ENTITY ns_adobe_xpath "http://ns.adobe.com/XPath/1.0/">
]>
<svg version="1.1" id="Layer_1" xmlns:x="&ns_extend;" xmlns:i="&ns_ai;" xmlns:graph="&ns_graphs;"
	 xmlns="http://www.w3.org/2000/svg" xmlns:xlink="http://www.w3.org/1999/xlink" x="0px" y="0px" viewBox="0 0 190.8606873 33"
	 enable-background="new 0 0 190.8606873 33" xml:space="preserve">
<metadata>
	<sfw  xmlns="&ns_sfw;">
		<slices></slices>
		<sliceSourceBounds  bottomLeftOrigin="true" height="33" width="190.8606873" x="-44.4899025" y="128.3426971">
			</sliceSourceBounds>
	</sfw>
</metadata>
<g>
	<g>
		<path fill="#2A3C74" d="M0,3.2117894C0,2.5859318,0.1967518,2.066062,0.5907852,1.6523968
			c0.3936721-0.4136653,0.9568283-0.6206545,1.6891069-0.6206545c0.7321584,0,1.2980366,0.2069892,1.6973453,0.6206545
			c0.3994291,0.4136652,0.5991437,0.933535,0.5991437,1.5593926c0,0.6152587-0.1997147,1.1266496-0.5991437,1.5346539
			C3.5779288,5.1547127,3.0120506,5.3585467,2.2798922,5.3585467c-0.7322787,0-1.295435-0.2038341-1.6891069-0.6121035
			C0.1967518,4.338439,0,3.8270481,0,3.2117894z M4.2935143,25.9107227H0.249577V7.9046125h4.0439372V25.9107227z"/>
		<path fill="#2A3C74" d="M12.4478245,7.9046125l0.1164417,2.0801773c1.3313265-1.6084118,3.0786543-2.4129305,5.2421036-2.4129305
			c3.749773,0,5.6580105,2.1467571,5.7245903,6.4401751v11.8986883h-4.0438175V14.245039
			c0-1.1425476-0.2469997-1.9886913-0.7405167-2.5378523c-0.4938793-0.549161-1.3009758-0.8236685-2.4214096-0.8236685
			c-1.6308861,0-2.8456497,0.7379389-3.6445084,2.213336v12.8138685H8.6368914V7.9046125H12.4478245z"/>
		<path fill="#2A3C74" d="M26.9424629,16.7745075c0-2.795763,0.6573658-5.0282736,1.9719753-6.6980858
			c1.3147278-1.669692,3.0592384-2.5045624,5.2337437-2.5045624c2.0523071,0,3.6666222,0.7155857,4.8426781,2.1467571
			l0.1830215-1.8140039h3.6445084v17.4568291c0,2.3631649-0.7351227,4.2269344-2.2049789,5.5915508
			C39.1431923,32.317585,37.1602592,33,34.6640549,33c-1.3203659,0-2.6100426-0.2745094-3.869154-0.8237877
			c-1.2592068-0.549284-2.216156-1.2676868-2.8705807-2.1549969l1.9137764-2.4297447
			c1.2423916,1.4753971,2.7734108,2.2133369,4.5929527,2.2133369c1.3422623,0,2.4018745-0.3634415,3.178524-1.0900841
			c0.7765045-0.7266426,1.1649971-1.7946129,1.1649971-3.2034302v-1.2147636
			c-1.1649971,1.2980366-2.7183914,1.9470425-4.6596756,1.9470425c-2.1079292,0-3.8303261-0.8376656-5.1671677-2.5127773
			C27.6107635,22.0556831,26.9424629,19.736721,26.9424629,16.7745075z M30.9696846,17.1240749
			c0,1.8083668,0.3687401,3.2313251,1.106678,4.2684631c0.7377014,1.0376186,1.7610855,1.5560913,3.0702744,1.5560913
			c1.630909,0,2.8400116-0.6991329,3.6279335-2.0968933v-7.9213305c-0.7655678-1.3645916-1.9637604-2.0468874-3.5946465-2.0468874
			c-1.3312988,0-2.36586,0.5270481-3.1035614,1.5809031C31.3384247,13.5185175,30.9696846,15.0716467,30.9696846,17.1240749z"/>
		<path fill="#2A3C74" d="M58.278286,21.3341961c0-0.9872761-0.3968277-1.7804966-1.1898079-2.3796406
			c-0.7933426-0.5990238-1.9886894-1.0676098-3.5862885-1.4061203c-1.5975952-0.3383904-2.83741-0.7265224-3.7192993-1.1649971
			c-0.8820114-0.4381151-1.5368004-0.9735222-1.9637604-1.605835c-0.4271774-0.6324339-0.6406479-1.3978815-0.6406479-2.2964888
			c0-1.4199944,0.5933609-2.5932302,1.7806168-3.5197077c1.1869926-0.9262362,2.7068558-1.3895473,4.5597839-1.3895473
			c2.0078659,0,3.6194572,0.4966002,4.834343,1.4893923c1.2147408,0.9930573,1.8222427,2.2881546,1.8222427,3.8857508h-1.9970245
			c0-1.0538549-0.4409599-1.9303493-1.3229713-2.6293383c-0.8820076-0.6988926-1.9944458-1.04846-3.3365898-1.04846
			c-1.3093071,0-2.3605843,0.2913465-3.1535683,0.8737965c-0.7933159,0.582427-1.1899261,1.3395405-1.1899261,2.271534
			c0,0.8986073,0.3300285,1.5948982,0.9902115,2.0884399c0.6599693,0.4938784,1.8637733,0.9459887,3.6112213,1.3563538
			c1.7473259,0.4104853,3.0563011,0.8486242,3.927372,1.3146086c0.870739,0.4660091,1.5169258,1.0263462,1.9387093,1.6807728
			c0.4215431,0.6547642,0.6323128,1.4477444,0.6323128,2.3797626c0,1.5200806-0.613018,2.7348442-1.8388367,3.6445084
			c-1.2260628,0.9098797-2.8264771,1.3645916-4.8010521,1.3645916c-2.0967522,0-3.7971535-0.5076332-5.1006126-1.5226822
			c-1.303791-1.0152664-1.9553757-2.2991867-1.9553757-3.8524609h1.9970245
			c0.0775185,1.1648998,0.5683365,2.071722,1.472702,2.7207527c0.9041214,0.6490059,2.099472,0.9736404,3.5862617,0.9736404
			c1.3867302,0,2.5071411-0.3050995,3.3615227-0.9152985C57.8511086,23.0375404,58.278286,22.2662144,58.278286,21.3341961z"/>
		<path fill="#2A3C74" d="M63.6535492,16.6413727c0-1.7306347,0.335453-3.2891836,1.006813-4.6762505
			c0.6711197-1.3865843,1.6197052-2.4654913,2.8456268-3.2367201c1.2258148-0.7709885,2.6153641-1.1565428,4.1687393-1.1565428
			c2.3963318,0,4.337616,0.8403864,5.8244324,2.5211344c1.4865723,1.6807728,2.2300262,3.9082251,2.2300262,6.6815138v0.4161472
			c0,1.741787-0.3356857,3.3089371-1.0068054,4.7010612c-0.6713638,1.3925819-1.6171341,2.4659729-2.8374176,3.2201481
			c-1.22052,0.7546329-2.6126404,1.1317081-4.1769485,1.1317081c-2.3855209,0-4.3242264-0.8405075-5.8162003-2.5212555
			c-1.4923248-1.680748-2.238266-3.9077435-2.238266-6.6815147V16.6413727z M65.6504517,17.1906548
			c0,2.1525135,0.5575256,3.9188957,1.6725388,5.3002052s2.5765381,2.0719624,4.385025,2.0719624
			c1.7971878,0,3.2534103-0.6906528,4.3683319-2.0719624c1.1150131-1.3813095,1.6725082-3.2034302,1.6725082-5.4666309v-0.3828564
			c0-1.3754311-0.2553329-2.634758-0.765564-3.7775221c-0.5103607-1.1425476-1.2259445-2.0273771-2.146759-2.654294
			c-0.9209595-0.6266527-1.9748154-0.9403524-3.1618042-0.9403524c-1.7751999,0-3.2229691,0.6964121-4.3433762,2.0885363
			c-1.1207962,1.3924866-1.6809006,3.2147284-1.6809006,5.466774V17.1906548z"/>
		<path fill="#2A3C74" d="M85.2707596,25.9107227V9.5354986h-2.9787903V7.9046125h2.9787903V5.7246861
			c0-1.841537,0.4685898-3.2560153,1.4062347-4.2436523C87.6142883,0.4937583,88.9206619,0,90.5960159,0
			c0.7542725,0,1.4587021,0.0936064,2.113472,0.2802653l-0.1497345,1.6500602
			c-0.554924-0.1330146-1.159462-0.1995941-1.8140106-0.1995941c-1.09832,0-1.9526978,0.3421477-2.5627823,1.0262262
			c-0.610199,0.6841748-0.9152985,1.6548777-0.9152985,2.9117475v2.2359076h4.2935181v1.6308861H87.267662v16.3752251H85.2707596z"
			/>
		<path fill="#2A3C74" d="M98.2176361,3.2949414v4.6096711h3.7277832v1.6308861h-3.7277832v12.0118303
			c0,0.999752,0.1802063,1.7438107,0.5410461,2.2323895c0.3603821,0.4890614,0.9623413,0.7332191,1.8054276,0.7332191
			c0.3328781,0,0.8708572-0.0555,1.6141968-0.1665459l0.0832672,1.6167698
			c-0.5215073,0.186779-1.2314529,0.2804108-2.1300583,0.2804108c-1.3645935,0-2.3577728-0.3966122-2.9787903-1.1898327
			c-0.6214981-0.7931976-0.9319916-1.9609184-0.9319916-3.5031109v-12.01513h-3.3116608V7.9046125h3.3116608V3.2949414H98.2176361z"
			/>
		<path fill="#2A3C74" d="M110.3828354,21.7670364l0.299469,1.5476131l0.3994293-1.6308861l4.326683-13.779151h1.697464
			l4.2768173,13.6627092l0.466011,1.8971806l0.3827133-1.7473297l3.6943741-13.8125601h2.0637207l-5.2422256,18.0061111h-1.6974411
			l-4.6261444-14.2783289l-0.2164307-0.9818802l-0.2164078,0.9984522l-4.5431213,14.2617569h-1.6974411l-5.2252884-18.0061111
			h2.0467911L110.3828354,21.7670364z"/>
		<path fill="#2A3C74" d="M143.1330414,25.9107227c-0.199707-0.5657578-0.3274536-1.4034233-0.3827362-2.5128002
			c-0.6988678,0.9096622-1.5892334,1.6116142-2.6708374,2.1051331c-1.0818787,0.4935169-2.2274628,0.7405167-3.436554,0.7405167
			c-1.7306366,0-3.1314545-0.4827023-4.2020264-1.4478645c-1.0708008-0.9651871-1.605957-2.1853466-1.605957-3.6609859
			c0-1.752964,0.7294617-3.1395721,2.1884003-4.1604996c1.4586792-1.020565,3.4918365-1.5310163,6.0991821-1.5310163h3.6110992
			v-2.0469122c0-1.2868595-0.3968506-2.2990656-1.1898041-3.0370054c-0.793457-0.7376986-1.9498901-1.1066561-3.4697266-1.1066561
			c-1.3869781,0-2.5351563,0.3552027-3.4447937,1.065032c-0.9099121,0.710166-1.364624,1.5643063-1.364624,2.5627584
			l-1.9969025-0.016572c0-1.4311714,0.6654816-2.6709871,1.9969025-3.7194223
			c1.3312073-1.0483389,2.9677429-1.5725689,4.9091339-1.5725689c2.0079956,0,3.5918427,0.5021172,4.751297,1.5059891
			c1.1590118,1.0042095,1.7555542,2.4046926,1.7889709,4.2020035v8.5203533c0,1.7419319,0.1830292,3.0453644,0.5490417,3.9108028
			v0.1997147H143.1330414z M136.8757782,24.4795513c1.3314362,0,2.5212402-0.3215771,3.5697021-0.9651871
			c1.0484314-0.6433697,1.8110657-1.5031471,2.2881317-2.5793552v-3.9607868h-3.5612335
			c-1.986084,0.0223541-3.5391235,0.3856754-4.6595306,1.0900841c-1.1206818,0.7046509-1.6807709,1.6724148-1.6807709,2.9038715
			c0,1.0096283,0.3742523,1.8473167,1.1232452,2.5127754C134.7040863,24.146677,135.6777191,24.4795513,136.8757782,24.4795513z"/>
		<path fill="#2A3C74" d="M158.3433685,9.6020784c-0.4217682-0.0775156-0.8710785-0.1164427-1.3479004-0.1164427
			c-1.2427368,0-2.2940063,0.3468456-3.1535645,1.0400772c-0.8600311,0.6934729-1.4728088,1.700284-1.8388214,3.0204334v12.3645763
			h-1.9804535V7.9046125h1.9470367l0.0334167,2.8623428c1.0538483-2.130064,2.7456665-3.195096,5.0754395-3.195096
			c0.5546722,0,0.9929047,0.072216,1.3147278,0.216311L158.3433685,9.6020784z"/>
		<path fill="#2A3C74" d="M168.1451569,26.2435722c-1.5311432,0-2.9152527-0.3770752-4.1521454-1.1317081
			c-1.2370911-0.7541752-2.1994324-1.8054523-2.8872681-3.1535683c-0.6880493-1.3478985-1.0317383-2.8593082-1.0317383-4.5347576
			v-0.7155857c0-1.7306347,0.3354492-3.2891846,1.0068054-4.6762505c0.6711121-1.3866081,1.605957-2.4766922,2.8040009-3.27001
			c1.198288-0.7931013,2.4963226-1.1898327,3.8940887-1.1898327c2.1855774,0,3.9190369,0.7462978,5.200592,2.2382679
			c1.2813263,1.4922352,1.9221191,3.5307646,1.9221191,6.1156597v1.115015h-12.8473969v0.3827362
			c0,2.0414925,0.5852661,3.7417755,1.7557983,5.1007309c1.1703033,1.3589554,2.6430969,2.0385532,4.4181976,2.0385532
			c1.0651245,0,2.0053864-0.1940765,2.820694-0.582449c0.8155823-0.3883743,1.5560913-1.0093899,2.221817-1.8640118
			l1.2481537,0.9487114C173.0542908,25.1842976,170.9296417,26.2435722,168.1451569,26.2435722z M167.7789001,9.2692041
			c-1.4977264,0-2.7597809,0.5492821-3.7858887,1.647604c-1.0263214,1.0982971-1.6503906,2.5739355-1.8722229,4.4265289h10.8003693
			v-0.2162876c-0.0555267-1.7307558-0.5490417-3.1394529-1.4810333-4.2269592
			C170.5081024,9.8129454,169.2877045,9.2692041,167.7789001,9.2692041z"/>
		<path fill="#2A3C74" d="M190.8606873,27.5914707h-14.6610565v-1.680748h14.6610565V27.5914707z"/>
	</g>
</g>
</svg>
